<svg xmlns="http://www.w3.org/2000/svg" viewBox="0 0 120 120" width="120" height="120" role="img" aria-label="Logo D&R Fried Chicken">
  <defs>
    <linearGradient id="g1" x1="0" y1="0" x2="1" y2="1">
      <stop offset="0%" stop-color="#d71921" />
      <stop offset="60%" stop-color="#ff4d2e" />
      <stop offset="100%" stop-color="#ffb100" />
    </linearGradient>
  </defs>
  <circle cx="60" cy="60" r="56" fill="url(#g1)" stroke="#ffffff" stroke-width="4" />
  <path fill="#fff" d="M34 74c14 4 26-2 34-12 4-5 7-12 7-18 0-6-3-11-8-13 3 6 2 14-2 20-6 9-16 15-31 17v6z" opacity="0.9" />
  <path fill="#fff" d="M48 84c18 0 32-10 38-24 3-6 3-14-2-18-1 7-5 13-10 17-8 7-18 11-32 11l6 14z" opacity="0.85" />
  <text x="60" y="66" font-size="34" font-family="'Plus Jakarta Sans',Arial,sans-serif" font-weight="800" text-anchor="middle" fill="#fff">D&R</text>
</svg>
